<svg width="886" height="316" viewBox="0 0 886 316" fill="none" xmlns="http://www.w3.org/2000/svg">
<g clip-path="url(#clip0_1_2)">
<path d="M195.12 11.65V1.29H128.77V11.65H144.48V136.7C138.31 128.26 124.5 126.77 107.04 128.58C82.23 131.16 63.36 152.03 63.36 176.96V264C63.36 287.73 80.13 308.28 103.44 312.71C118.39 315.55 132.37 314.41 144.48 305.53C146.85 303.79 149.14 301.76 151.36 299.41C151.36 299.41 157.12 310.94 179.42 311.76H182.7C184.15 311.76 185.08 310.22 184.41 308.94L179.42 299.41V11.65H195.12ZM144.48 285.5C144.48 298.25 134.14 308.59 121.39 308.59C108.64 308.59 98.3 298.25 98.3 285.5V159.45C98.3 146.7 108.64 136.36 121.39 136.36C127.76 136.36 133.54 138.95 137.72 143.12C141.9 147.3 144.48 153.07 144.48 159.45V285.5Z" fill="#EDEDED"/>
<path d="M50.65 11.65V303.41H66.36V313.76H0V303.41H15.71V11.65H0V1.29H66.36V11.65H50.65Z" fill="#EDEDED"/>
<path d="M484.41 72.35H478.95C478.05 85.15 473.37 97.03 465.59 108.17C461.29 114.34 454.23 118 446.7 118H433.77V128.35H457.77V267.88C457.77 292.7 477.89 312.82 502.71 312.82H512.48C529.87 312.82 544.72 301.91 550.53 286.57L542.77 278.82C540.69 291.31 529.83 300.82 516.75 300.82H512.59C501.61 300.82 492.71 291.92 492.71 280.94V128.35H533.89V118H492.71V72.35H484.41Z" fill="#EDEDED"/>
<path d="M772.95 301.53C771.6 305.33 769.25 308.87 764.48 311.76C759.51 313.77 754.38 314.88 749.1 315.19C735.66 316 722.91 309.11 715.7 297.73L664.88 217.53L661.3 220.75V303.4H671.12V313.75H616.53V303.4H626.36V10.35H614.5V0H673.15V10.35H661.3V204.12L731.69 141.88H709V131.53H767.65V141.88H748.95L688.87 195.95L751.95 292.56C754.63 296.67 758.76 299.63 763.53 300.81C766.66 301.59 770.17 302.09 772.95 301.52V301.53Z" fill="#EDEDED"/>
<path d="M448.18 311.76H422.53C412.66 311.76 404.65 303.76 404.65 293.88V150.29C404.65 142.12 375.59 125.06 358.18 145.35V303.41H368V313.76H313.42V303.41H323.24V160.35H314.89C312.55 160.35 310.65 158.45 310.65 156.11V153.25C310.65 151.81 311.38 150.47 312.59 149.69L323.24 142.83L349 126.23H351.95C355.39 126.23 358.18 129.02 358.18 132.46V133.84C376.24 121.91 396.38 124.97 417.66 136.34C417.67 136.35 417.68 136.35 417.69 136.36C417.69 136.36 419.42 137.3 421.92 139.25C433.16 148 439.59 161.57 439.59 175.82V292.47C439.59 296.56 441.28 300.47 444.25 303.28L449.56 308.29C450.89 309.54 450 311.76 448.18 311.76Z" fill="#EDEDED"/>
<path d="M607.42 303.41V313.76H552.83V303.41H562.65V158.7H555.96C553.22 158.7 551 156.48 551 153.74V152.62C551 150.87 551.91 149.26 553.41 148.36C555.52 147.1 558.83 145.1 562.65 142.78C573.14 136.41 587.44 127.67 590.92 125.54C591.44 125.22 592.03 125.06 592.63 125.06H594.29C596.11 125.06 597.58 126.53 597.58 128.35V303.41H607.41H607.42Z" fill="#EDEDED"/>
<path d="M583 74.23C594.99 74.23 604.71 66.6457 604.71 57.29C604.71 47.9343 594.99 40.35 583 40.35C571.01 40.35 561.29 47.9343 561.29 57.29C561.29 66.6457 571.01 74.23 583 74.23Z" fill="#EDEDED"/>
<path d="M275.12 222.47C275.28 222.45 275.43 222.42 275.59 222.4C294.26 219.4 307.89 203.12 307.89 184.22V182.07C307.89 152.15 283.64 127.9 253.72 127.9H242.79C214.55 127.9 191.65 150.79 191.65 179.04V264.72C191.65 291.28 213.19 312.82 239.75 312.82H247.88C279.29 312.82 305.07 288.68 307.67 257.94H293.64C291.49 282.15 271.09 301.12 246.29 301C233.81 300.94 223.77 290.71 223.77 278.23V222.47H275.12ZM225.53 151.49C225.53 141.76 233.42 133.88 243.14 133.88C259.67 133.88 274.19 144.9 278.61 160.83C283.03 176.77 282.71 192.01 274.17 206.05C270.81 211.58 264.73 214.88 258.26 214.88H225.53V151.49Z" fill="#EDEDED"/>
<path d="M835.18 128.35H818.12C791.91 128.35 770.65 149.6 770.65 175.82V264.29C770.65 290.51 791.91 311.76 818.12 311.76H835.18C861.4 311.76 882.65 290.51 882.65 264.29V175.82C882.65 149.6 861.4 128.35 835.18 128.35ZM850.18 283.55C850.18 295.37 840.59 304.96 828.77 304.96H824.53C812.71 304.96 803.12 295.37 803.12 283.55V155.41C803.12 143.58 812.71 134 824.53 134H828.77C840.59 134 850.18 143.58 850.18 155.41V283.55Z" fill="#EDEDED"/>
</g>
<defs>
<clipPath id="clip0_1_2">
<rect width="885.65" height="315.26" fill="white"/>
</clipPath>
</defs>
</svg>
